REM DIRINDEX 1\2\6,1\2\7,1\2\8,1\2\9,1\3\10,1\3\11,1\4\12,1\4\13,1\4\14,1\5\15,1\5\16,1\5\17
REM DIRNAME cjc020,folder01,folder02,folder03,folder04,folder05,folder06,folder07,folder08,folder09,folder10,folder11,folder12,folder13,folder14,folder15,folder16
TITLE ""
FILE "1900_2_sec09_0833_0850.mp3" MP3
  TRACK 01 AUDIO
    TITLE "0:"
    INDEX 01 00:00:00
  TRACK 02 AUDIO
    TITLE "13:cjc020_3786"
    INDEX 01 00:00:17
  TRACK 03 AUDIO
    TITLE "0:"
    INDEX 01 00:01:19
  TRACK 04 AUDIO
    TITLE "14:cjc020_3787"
    INDEX 01 00:01:22
  TRACK 05 AUDIO
    TITLE "0:"
    INDEX 01 00:03:59
  TRACK 06 AUDIO
    TITLE "13:cjc020_3788"
    INDEX 01 00:04:38
  TRACK 07 AUDIO
    TITLE "0:"
    INDEX 01 00:05:44
  TRACK 08 AUDIO
    TITLE "14:cjc020_3789"
    INDEX 01 00:05:48
  TRACK 09 AUDIO
    TITLE "0:"
    INDEX 01 00:09:12
  TRACK 10 AUDIO
    TITLE "13:cjc020_3790"
    INDEX 01 00:09:67
  TRACK 11 AUDIO
    TITLE "0:"
    INDEX 01 00:11:11
  TRACK 12 AUDIO
    TITLE "14:cjc020_3791"
    INDEX 01 00:11:15
  TRACK 13 AUDIO
    TITLE "0:"
    INDEX 01 00:13:71
  TRACK 14 AUDIO
    TITLE "13:cjc020_3792"
    INDEX 01 00:14:54
  TRACK 15 AUDIO
    TITLE "0:"
    INDEX 01 00:15:68
  TRACK 16 AUDIO
    TITLE "14:cjc020_3793"
    INDEX 01 00:15:70
  TRACK 17 AUDIO
    TITLE "0:"
    INDEX 01 00:18:25
  TRACK 18 AUDIO
    TITLE "13:cjc020_3794"
    INDEX 01 00:19:05
  TRACK 19 AUDIO
    TITLE "0:"
    INDEX 01 00:20:14
  TRACK 20 AUDIO
    TITLE "14:cjc020_3795"
    INDEX 01 00:20:16
  TRACK 21 AUDIO
    TITLE "0:"
    INDEX 01 00:23:06
  TRACK 22 AUDIO
    TITLE "13:cjc020_3796"
    INDEX 01 00:23:63
  TRACK 23 AUDIO
    TITLE "0:"
    INDEX 01 00:24:59
  TRACK 24 AUDIO
    TITLE "14:cjc020_3797"
    INDEX 01 00:24:63
  TRACK 25 AUDIO
    TITLE "0:"
    INDEX 01 00:27:73
  TRACK 26 AUDIO
    TITLE "13:cjc020_3798"
    INDEX 01 00:28:53
  TRACK 27 AUDIO
    TITLE "0:"
    INDEX 01 00:29:46
  TRACK 28 AUDIO
    TITLE "14:cjc020_3799"
    INDEX 01 00:29:50
  TRACK 29 AUDIO
    TITLE "0:"
    INDEX 01 00:33:36
  TRACK 30 AUDIO
    TITLE "13:cjc020_3800"
    INDEX 01 00:34:14
  TRACK 31 AUDIO
    TITLE "0:"
    INDEX 01 00:35:29
  TRACK 32 AUDIO
    TITLE "14:cjc020_3801"
    INDEX 01 00:35:31
  TRACK 33 AUDIO
    TITLE "0:"
    INDEX 01 00:38:02
  TRACK 34 AUDIO
    TITLE "12:cjc020_3802"
    INDEX 01 00:39:52
  TRACK 35 AUDIO
    TITLE "0:"
    INDEX 01 00:41:00
  TRACK 36 AUDIO
    TITLE "13:cjc020_3803"
    INDEX 01 00:42:02
  TRACK 37 AUDIO
    TITLE "0:"
    INDEX 01 00:42:74
  TRACK 38 AUDIO
    TITLE "14:cjc020_3804"
    INDEX 01 00:43:03
  TRACK 39 AUDIO
    TITLE "0:"
    INDEX 01 00:46:21
  TRACK 40 AUDIO
    TITLE "13:cjc020_3805"
    INDEX 01 00:47:01
  TRACK 41 AUDIO
    TITLE "0:"
    INDEX 01 00:48:18
  TRACK 42 AUDIO
    TITLE "14:cjc020_3806"
    INDEX 01 00:48:22
  TRACK 43 AUDIO
    TITLE "0:"
    INDEX 01 00:52:47
  TRACK 44 AUDIO
    TITLE "13:cjc020_3807"
    INDEX 01 00:53:25
  TRACK 45 AUDIO
    TITLE "0:"
    INDEX 01 00:54:29
  TRACK 46 AUDIO
    TITLE "14:cjc020_3808"
    INDEX 01 00:54:32
  TRACK 47 AUDIO
    TITLE "0:"
    INDEX 01 00:56:39
  TRACK 48 AUDIO
    TITLE "13:cjc020_3809"
    INDEX 01 00:57:17
  TRACK 49 AUDIO
    TITLE "0:"
    INDEX 01 00:58:38
  TRACK 50 AUDIO
    TITLE "14:cjc020_3810"
    INDEX 01 00:58:42
  TRACK 51 AUDIO
    TITLE "0:"
    INDEX 01 01:01:19
  TRACK 52 AUDIO
    TITLE "13:cjc020_3811"
    INDEX 01 01:02:01
  TRACK 53 AUDIO
    TITLE "0:"
    INDEX 01 01:03:10
  TRACK 54 AUDIO
    TITLE "14:cjc020_3812"
    INDEX 01 01:03:14
  TRACK 55 AUDIO
    TITLE "0:"
    INDEX 01 01:05:26
  TRACK 56 AUDIO
    TITLE "13:cjc020_3813"
    INDEX 01 01:06:06
  TRACK 57 AUDIO
    TITLE "0:"
    INDEX 01 01:07:15
  TRACK 58 AUDIO
    TITLE "14:cjc020_3814"
    INDEX 01 01:07:17
  TRACK 59 AUDIO
    TITLE "0:"
    INDEX 01 01:10:39
  TRACK 60 AUDIO
    TITLE "13:cjc020_3815"
    INDEX 01 01:11:17
  TRACK 61 AUDIO
    TITLE "0:"
    INDEX 01 01:12:40
  TRACK 62 AUDIO
    TITLE "14:cjc020_3816"
    INDEX 01 01:12:42
  TRACK 63 AUDIO
    TITLE "0:"
    INDEX 01 01:14:47
  TRACK 64 AUDIO
    TITLE "13:cjc020_3817"
    INDEX 01 01:15:29
  TRACK 65 AUDIO
    TITLE "0:"
    INDEX 01 01:16:46
  TRACK 66 AUDIO
    TITLE "14:cjc020_3818"
    INDEX 01 01:16:52
  TRACK 67 AUDIO
    TITLE "0:"
    INDEX 01 01:20:71
  TRACK 68 AUDIO
    TITLE "13:cjc020_3819"
    INDEX 01 01:21:51
  TRACK 69 AUDIO
    TITLE "0:"
    INDEX 01 01:22:54
  TRACK 70 AUDIO
    TITLE "14:cjc020_3820"
    INDEX 01 01:22:56
  TRACK 71 AUDIO
    TITLE "0:"
    INDEX 01 01:24:65
  TRACK 72 AUDIO
    TITLE "13:cjc020_3821"
    INDEX 01 01:25:45
  TRACK 73 AUDIO
    TITLE "0:"
    INDEX 01 01:26:64
  TRACK 74 AUDIO
    TITLE "14:cjc020_3822"
    INDEX 01 01:26:70
  TRACK 75 AUDIO
    TITLE "0:"
    INDEX 01 01:27:73
